<svg width="475" height="502" viewBox="0 0 475 502" fill="none" xmlns="http://www.w3.org/2000/svg">
<g filter="url(#filter0_d_160_576)">
<path d="M436.929 147.542C436.929 147.542 413.762 228.253 277.381 271.048C141 313.843 77.1964 259.263 77.1964 259.263L80.7555 270.723C80.7555 270.723 144.559 325.303 280.94 282.508C417.321 239.713 440.488 159.002 440.488 159.002L436.929 147.542Z" fill="#9A9A9A"/>
<path d="M156.471 221.292C163.258 218.738 170.995 222.539 173.146 229.464C175.296 236.39 171.074 243.905 164.035 245.645C157.397 247.285 150.821 243.557 148.793 237.027C146.765 230.497 150.072 223.701 156.471 221.292Z" fill="#3B82F6"/>
<path d="M259.327 212.917C266.189 210.57 273.654 214.228 276.001 221.09C278.415 228.144 274.294 235.979 267.113 237.986C260.129 239.938 252.885 235.859 250.933 228.875C249.037 222.093 252.665 215.197 259.327 212.917Z" fill="#EF4444"/>
<path d="M347.517 161.175C354.572 158.761 362.407 162.882 364.414 170.063C366.366 177.047 362.287 184.291 355.303 186.243C348.521 188.139 341.625 184.511 339.345 177.849C336.997 170.987 340.656 163.522 347.517 161.175Z" fill="#84CC16"/>
<path fill-rule="evenodd" clip-rule="evenodd" d="M150.406 189.015L77.1964 259.263C77.1964 259.263 141 313.843 277.381 271.048C413.762 228.253 436.929 147.542 436.929 147.542L334.373 131.494C334.373 131.494 313.362 169.435 251.764 188.565C190.167 207.695 150.406 189.015 150.406 189.015ZM156.471 221.292C163.258 218.738 170.995 222.539 173.146 229.464C175.296 236.39 171.074 243.905 164.035 245.645C157.397 247.285 150.821 243.557 148.793 237.027C146.765 230.497 150.072 223.701 156.471 221.292ZM276.001 221.09C273.654 214.228 266.189 210.57 259.327 212.917C252.665 215.197 249.037 222.093 250.933 228.875C252.885 235.859 260.129 239.938 267.113 237.986C274.294 235.979 278.415 228.144 276.001 221.09ZM347.517 161.175C354.572 158.761 362.407 162.882 364.414 170.063C366.366 177.047 362.287 184.291 355.303 186.243C348.521 188.139 341.625 184.511 339.345 177.849C336.997 170.987 340.656 163.522 347.517 161.175Z" fill="#F0F0F0"/>
<path d="M334.373 131.494L324.442 129.861C324.442 129.861 310.248 159.407 248.65 178.537C187.052 197.667 158.271 181.468 158.271 181.468L150.406 189.015C150.406 189.015 190.167 207.695 251.764 188.565C313.362 169.435 334.373 131.494 334.373 131.494Z" fill="#9A9A9A"/>
<path fill-rule="evenodd" clip-rule="evenodd" d="M158.271 181.468C158.271 181.468 187.052 197.667 248.65 178.537C310.248 159.407 324.442 129.861 324.442 129.861C324.442 129.861 314.416 97.5795 283.042 83.8229C283.042 83.8229 253.021 84.4879 222.228 94.0711C191.434 103.654 166.565 119.997 166.565 119.997C148.4 149.138 158.271 181.468 158.271 181.468Z" fill="#ABEAAE"/>
<path d="M220.844 89.0034C195.231 96.9541 174.366 109.721 174.366 109.721C171.32 113.06 168.741 116.505 166.565 119.997C166.565 119.997 191.434 103.654 222.228 94.0711C253.021 84.4879 283.042 83.8229 283.042 83.8229C279.283 82.1747 275.217 80.7924 270.826 79.7634C270.826 79.7634 246.457 81.0527 220.844 89.0034Z" fill="#9A9A9A"/>
<path d="M174.366 109.721C174.366 109.721 195.231 96.9541 220.844 89.0034C246.457 81.0527 270.826 79.7634 270.826 79.7634C257.283 76.5901 241.317 77.1478 221.756 82.4375C221.756 82.4375 212.714 75.6641 207.231 73.5979C200.815 71.1802 190.632 73.2554 190.632 73.2554L190.855 73.9716C190.855 73.9716 200.469 73.1999 206.243 75.4752C212.017 77.7506 216.026 84.2171 216.026 84.2171C196.687 90.223 183.846 99.33 174.366 109.721Z" fill="#F0F0F0"/>
<path d="M68.6221 288.5C109.758 309.5 145.258 331.5 218.957 319.242C224.706 318.285 230.957 320.742 232.457 326.242C233.957 331.741 227.78 334.674 222.228 335.241C146.257 343 100.757 313 68.6221 288.5Z" fill="#84CC16"/>
<path d="M55.7576 301C55.7576 301 83.7577 342 159.758 352C163.408 352.48 167.258 356.5 166.258 361C165.258 365.5 160.191 367.052 153.758 365.5C83.2577 348.5 55.7576 301 55.7576 301Z" fill="#84CC16"/>
</g>
<g filter="url(#filter1_d_160_576)">
<path d="M176.722 76.3765L176.283 79.3472L178.733 78.446L181.756 77.3342L184.481 76.3317L184.888 73.4824L185.345 70.2836L185.716 67.6845L183.008 68.6651L180.026 69.7448L177.572 70.633L177.191 73.2077L176.722 76.3765Z" fill="#3B82F6"/>
<path d="M192.748 73.3725L185.716 67.6845L185.345 70.2836L184.888 73.4824L184.481 76.3317L186.796 78.2046L189.285 80.2176L191.513 82.0197L192.748 73.3725Z" fill="#EF4444"/>
<path d="M181.018 83.1767L183.3 85.0225L188.738 83.0343L191.513 82.0197L189.285 80.2176L186.796 78.2046L184.481 76.3317L181.756 77.3342L178.733 78.446L176.283 79.3472L178.511 81.1493L181.018 83.1767Z" fill="#DADADA"/>
</g>
<path d="M161.487 428.242C161.487 428.242 144.003 400.922 108.438 404.725C72.9722 409.358 62.3737 440.013 62.3737 440.013C62.3737 440.013 71.5174 432.455 81.6894 431.627C97.8455 430.313 99.0503 442.045 112.692 440.544C126.306 438.808 124.73 427.121 140.744 424.614C150.827 423.036 161.487 428.242 161.487 428.242Z" fill="#ABEAAE"/>
<path d="M178.989 443.378C178.989 443.378 147.381 470.266 116.553 473.05C85.9302 477.564 48.9033 458.827 48.9033 458.827L49.3951 462.968C49.3951 462.968 86.422 481.705 117.045 477.191C147.873 474.407 179.481 447.519 179.481 447.519L178.989 443.378Z" fill="#9A9A9A"/>
<path d="M161.487 428.242C161.487 428.242 150.827 423.036 140.744 424.614C124.73 427.121 126.306 438.808 112.692 440.544C99.0503 442.045 97.8455 430.313 81.6894 431.627C71.5174 432.455 62.3737 440.013 62.3737 440.013C62.3737 440.013 71.9108 435.767 82.0828 434.94C90.4239 434.262 94.7798 437.061 98.9195 439.72C102.798 442.213 106.487 444.583 113.086 443.857C119.671 443.017 122.702 439.849 125.889 436.518C129.291 432.962 132.87 429.221 141.138 427.927C151.221 426.348 161.487 428.242 161.487 428.242Z" fill="#9A9A9A"/>
<path fill-rule="evenodd" clip-rule="evenodd" d="M178.989 443.378C178.989 443.378 147.381 470.266 116.553 473.05C85.9302 477.564 48.9033 458.827 48.9033 458.827C51.5891 455.407 52.9375 452.889 54.1682 450.59C55.9381 447.285 57.4643 444.434 62.3737 440.013C62.3737 440.013 71.9108 435.767 82.0828 434.94C90.4239 434.262 94.7798 437.061 98.9195 439.72C102.798 442.213 106.487 444.583 113.086 443.857C119.671 443.017 122.702 439.849 125.889 436.518C129.291 432.962 132.87 429.221 141.138 427.927C151.221 426.348 161.487 428.242 161.487 428.242C167.295 431.391 169.447 433.804 171.941 436.603C173.676 438.55 175.577 440.682 178.989 443.378ZM105.49 459.246C106.108 464.449 110.712 468.169 115.913 467.666C121.115 467.163 125.119 462.307 124.487 456.989C123.856 451.672 118.939 447.873 113.651 448.618C108.477 449.347 104.872 454.042 105.49 459.246Z" fill="#F0F0F0"/>
<path d="M115.913 467.666C110.712 468.169 106.108 464.449 105.49 459.246C104.872 454.042 108.477 449.347 113.651 448.618C118.939 447.873 123.856 451.672 124.487 456.989C125.119 462.307 121.115 467.163 115.913 467.666Z" fill="#EF4444"/>
<path d="M113.086 481C86.0859 484.5 46.1975 468.405 46.1975 468.405C46.1975 468.405 87.0858 489.5 113.387 486.5C116.24 486.175 117.086 485 117.086 483.5C117.086 482 115.68 480.664 113.086 481Z" fill="#84CC16"/>
<path d="M90.9596 492C65 488 42.879 472.297 42.879 472.297C42.879 472.297 61.5 490.5 90.5 496C92.9562 496.466 93.5 495 93.5 494.5C93.5 494 93.5447 492.398 90.9596 492Z" fill="#84CC16"/>
<defs>
<filter id="filter0_d_160_576" x="49.0311" y="72.4268" width="398.183" height="307.111" filterUnits="userSpaceOnUse" color-interpolation-filters="sRGB">
<feFlood flood-opacity="0" result="BackgroundImageFix"/>
<feColorMatrix in="SourceAlpha" type="matrix" values="0 0 0 0 0 0 0 0 0 0 0 0 0 0 0 0 0 0 127 0" result="hardAlpha"/>
<feOffset dy="6.72646"/>
<feGaussianBlur stdDeviation="3.36323"/>
<feComposite in2="hardAlpha" operator="out"/>
<feColorMatrix type="matrix" values="0 0 0 0 0 0 0 0 0 0 0 0 0 0 0 0 0 0 0.25 0"/>
<feBlend mode="normal" in2="BackgroundImageFix" result="effect1_dropShadow_160_576"/>
<feBlend mode="normal" in="SourceGraphic" in2="effect1_dropShadow_160_576" result="shape"/>
</filter>
<filter id="filter1_d_160_576" x="161.283" y="52.6846" width="46.4653" height="47.3379" filterUnits="userSpaceOnUse" color-interpolation-filters="sRGB">
<feFlood flood-opacity="0" result="BackgroundImageFix"/>
<feColorMatrix in="SourceAlpha" type="matrix" values="0 0 0 0 0 0 0 0 0 0 0 0 0 0 0 0 0 0 127 0" result="hardAlpha"/>
<feOffset/>
<feGaussianBlur stdDeviation="7.5"/>
<feComposite in2="hardAlpha" operator="out"/>
<feColorMatrix type="matrix" values="0 0 0 0 0 0 0 0 0 0 0 0 0 0 0 0 0 0 0.25 0"/>
<feBlend mode="normal" in2="BackgroundImageFix" result="effect1_dropShadow_160_576"/>
<feBlend mode="normal" in="SourceGraphic" in2="effect1_dropShadow_160_576" result="shape"/>
</filter>
</defs>
</svg>
