<svg width="490" height="137" viewBox="0 0 490 137" fill="none" xmlns="http://www.w3.org/2000/svg">
<g filter="url(#filter0_d_23_27)">
<path d="M59.7266 42.4988V76.8738C59.7266 81.6654 58.8151 85.8321 56.9922 89.3738C55.1693 92.8894 52.4349 95.6108 48.7891 97.5378C45.1432 99.4389 40.5729 100.389 35.0781 100.389C27.2135 100.389 21.2109 98.3712 17.0703 94.3347C12.9297 90.2983 10.8594 84.5951 10.8594 77.2253V42.4988H26.3672V76.0144C26.3672 80.0509 27.1224 82.9806 28.6328 84.8035C30.1432 86.6264 32.3698 87.5378 35.3125 87.5378C37.4219 87.5378 39.1406 87.1472 40.4688 86.366C41.7969 85.5587 42.7604 84.2957 43.3594 82.5769C43.9844 80.8582 44.2969 78.6446 44.2969 75.9363V42.4988H59.7266ZM98.5156 54.5691C103.073 54.5691 106.797 55.8582 109.688 58.4363C112.578 61.0144 114.023 65.142 114.023 70.8191V99.6082H98.75V75.4675C98.75 72.5248 98.3203 70.3113 97.4609 68.8269C96.6276 67.3165 95.2734 66.5613 93.3984 66.5613C90.5078 66.5613 88.5677 67.7462 87.5781 70.116C86.5885 72.4597 86.0938 75.8321 86.0938 80.2332V99.6082H70.8203V55.3503H82.3438L84.4141 61.2097H85C85.9375 59.8035 87.0573 58.6056 88.3594 57.616C89.6615 56.6264 91.1589 55.8712 92.8516 55.3503C94.5443 54.8295 96.4323 54.5691 98.5156 54.5691ZM139.766 55.3503V99.6082H124.492V55.3503H139.766ZM132.188 37.5378C134.375 37.5378 136.276 37.9936 137.891 38.905C139.531 39.8165 140.352 41.6264 140.352 44.3347C140.352 46.9649 139.531 48.7488 137.891 49.6863C136.276 50.5977 134.375 51.0535 132.188 51.0535C129.948 51.0535 128.034 50.5977 126.445 49.6863C124.883 48.7488 124.102 46.9649 124.102 44.3347C124.102 41.6264 124.883 39.8165 126.445 38.905C128.034 37.9936 129.948 37.5378 132.188 37.5378Z" fill="white"/>
</g>
<g filter="url(#filter1_d_23_27)">
<path d="M178.241 29.054L161 38.9095L175.943 47.5491L194.378 58.2085L211 67.819L227.475 58.2931L245.971 47.5989L261 38.9095L244.563 29.2954L226.465 18.7093L211.575 10L196.632 18.5414L178.241 29.054Z" fill="#3B82F6"/>
<path d="M261 97.3067V38.9095L245.971 47.5989L227.475 58.2931L211 67.819V87.0478V107.714V126.216L261 97.3067Z" fill="#EF4444"/>
<path d="M161 78.2264V97.1764L194.105 116.404L211 126.216V107.714V87.0478V67.819L194.378 58.2085L175.943 47.5491L161 38.9095V57.4116V78.2264Z" fill="#DADADA"/>
</g>
<g filter="url(#filter2_d_23_27)">
<path d="M307.602 54.3347C305.779 54.3347 304.151 54.7253 302.719 55.5066C301.286 56.2618 300.062 57.3686 299.047 58.8269C298.031 60.2852 297.25 62.0691 296.703 64.1785C296.182 66.2618 295.922 68.6316 295.922 71.2878C295.922 74.8816 296.378 77.9024 297.289 80.3503C298.201 82.7983 299.581 84.6472 301.43 85.8972C303.305 87.1472 305.648 87.7722 308.461 87.7722C311.013 87.7722 313.461 87.4207 315.805 86.7175C318.174 86.0144 320.557 85.1681 322.953 84.1785V97.2253C320.427 98.3451 317.836 99.1524 315.18 99.6472C312.549 100.142 309.75 100.389 306.781 100.389C300.583 100.389 295.505 99.1654 291.547 96.7175C287.615 94.2436 284.711 90.8191 282.836 86.4441C280.987 82.0691 280.062 76.991 280.062 71.2097C280.062 66.8868 280.661 62.9285 281.859 59.3347C283.083 55.741 284.867 52.629 287.211 49.9988C289.555 47.3425 292.445 45.2983 295.883 43.866C299.346 42.4076 303.305 41.6785 307.758 41.6785C310.518 41.6785 313.422 42.004 316.469 42.655C319.542 43.28 322.536 44.2957 325.453 45.7019L320.727 57.8503C318.643 56.8608 316.534 56.0274 314.398 55.3503C312.263 54.6733 309.997 54.3347 307.602 54.3347ZM376.273 55.3503V99.6082H364.75L362.836 94.1003H361.938C361.026 95.5847 359.867 96.7957 358.461 97.7332C357.081 98.6446 355.544 99.3087 353.852 99.7253C352.159 100.168 350.401 100.389 348.578 100.389C345.688 100.389 343.07 99.8295 340.727 98.7097C338.409 97.5899 336.56 95.8321 335.18 93.4363C333.826 91.0404 333.148 87.9545 333.148 84.1785V55.3503H348.422V79.53C348.422 82.3946 348.826 84.5821 349.633 86.0925C350.466 87.5769 351.82 88.3191 353.695 88.3191C355.622 88.3191 357.107 87.7983 358.148 86.7566C359.216 85.7149 359.958 84.1785 360.375 82.1472C360.792 80.116 361 77.642 361 74.7253V55.3503H376.273ZM402.094 38.8269V52.5769C402.094 54.1394 402.042 55.6368 401.938 57.0691C401.833 58.4753 401.703 59.8035 401.547 61.0535H402.094C403.24 59.2566 404.737 57.7332 406.586 56.4832C408.435 55.2071 410.857 54.5691 413.852 54.5691C418.461 54.5691 422.224 56.5222 425.141 60.4285C428.083 64.3347 429.555 69.9858 429.555 77.3816C429.555 82.4076 428.878 86.6394 427.523 90.0769C426.169 93.4884 424.268 96.0665 421.82 97.8113C419.398 99.53 416.586 100.389 413.383 100.389C410.258 100.389 407.875 99.8556 406.234 98.7878C404.62 97.6941 403.24 96.5222 402.094 95.2722H401.156L398.734 99.6082H386.82V38.8269H402.094ZM408.266 66.5613C406.859 66.5613 405.701 66.8868 404.789 67.5378C403.878 68.1889 403.201 69.2045 402.758 70.5847C402.315 71.9389 402.094 73.6707 402.094 75.78V77.9285C402.094 81.366 402.549 83.9181 403.461 85.5847C404.398 87.2514 406.052 88.0847 408.422 88.0847C410.219 88.0847 411.599 87.1602 412.562 85.3113C413.526 83.4623 414.008 80.767 414.008 77.2253C414.008 73.6837 413.539 71.0274 412.602 69.2566C411.664 67.4597 410.219 66.5613 408.266 66.5613ZM458.227 54.5691C462.523 54.5691 466.234 55.3243 469.359 56.8347C472.484 58.3191 474.893 60.5587 476.586 63.5535C478.279 66.5483 479.125 70.2983 479.125 74.8035V81.6003H451.82C451.951 83.9181 452.81 85.8191 454.398 87.3035C456.013 88.7878 458.383 89.53 461.508 89.53C464.268 89.53 466.794 89.2566 469.086 88.7097C471.404 88.1628 473.786 87.3165 476.234 86.1707V97.1472C474.099 98.267 471.768 99.0873 469.242 99.6082C466.716 100.129 463.526 100.389 459.672 100.389C455.219 100.389 451.234 99.5951 447.719 98.0066C444.203 96.4181 441.43 93.9571 439.398 90.6238C437.393 87.2904 436.391 83.0066 436.391 77.7722C436.391 72.4597 437.302 68.0977 439.125 64.6863C440.948 61.2488 443.5 58.7097 446.781 57.0691C450.062 55.4024 453.878 54.5691 458.227 54.5691ZM458.773 64.9597C456.977 64.9597 455.466 65.5326 454.242 66.6785C453.044 67.7983 452.341 69.5691 452.133 71.991H465.258C465.232 70.6889 464.971 69.504 464.477 68.4363C463.982 67.3686 463.253 66.5222 462.289 65.8972C461.352 65.2722 460.18 64.9597 458.773 64.9597Z" fill="white"/>
</g>
<defs>
<filter id="filter0_d_23_27" x="0.859375" y="27.5378" width="149.492" height="82.8516" filterUnits="userSpaceOnUse" color-interpolation-filters="sRGB">
<feFlood flood-opacity="0" result="BackgroundImageFix"/>
<feColorMatrix in="SourceAlpha" type="matrix" values="0 0 0 0 0 0 0 0 0 0 0 0 0 0 0 0 0 0 127 0" result="hardAlpha"/>
<feOffset/>
<feGaussianBlur stdDeviation="5"/>
<feComposite in2="hardAlpha" operator="out"/>
<feColorMatrix type="matrix" values="0 0 0 0 0 0 0 0 0 0 0 0 0 0 0 0 0 0 0.25 0"/>
<feBlend mode="normal" in2="BackgroundImageFix" result="effect1_dropShadow_23_27"/>
<feBlend mode="normal" in="SourceGraphic" in2="effect1_dropShadow_23_27" result="shape"/>
</filter>
<filter id="filter1_d_23_27" x="151" y="0" width="120" height="136.216" filterUnits="userSpaceOnUse" color-interpolation-filters="sRGB">
<feFlood flood-opacity="0" result="BackgroundImageFix"/>
<feColorMatrix in="SourceAlpha" type="matrix" values="0 0 0 0 0 0 0 0 0 0 0 0 0 0 0 0 0 0 127 0" result="hardAlpha"/>
<feOffset/>
<feGaussianBlur stdDeviation="5"/>
<feComposite in2="hardAlpha" operator="out"/>
<feColorMatrix type="matrix" values="0 0 0 0 0 0 0 0 0 0 0 0 0 0 0 0 0 0 0.25 0"/>
<feBlend mode="normal" in2="BackgroundImageFix" result="effect1_dropShadow_23_27"/>
<feBlend mode="normal" in="SourceGraphic" in2="effect1_dropShadow_23_27" result="shape"/>
</filter>
<filter id="filter2_d_23_27" x="270.062" y="28.8269" width="219.062" height="81.5625" filterUnits="userSpaceOnUse" color-interpolation-filters="sRGB">
<feFlood flood-opacity="0" result="BackgroundImageFix"/>
<feColorMatrix in="SourceAlpha" type="matrix" values="0 0 0 0 0 0 0 0 0 0 0 0 0 0 0 0 0 0 127 0" result="hardAlpha"/>
<feOffset/>
<feGaussianBlur stdDeviation="5"/>
<feComposite in2="hardAlpha" operator="out"/>
<feColorMatrix type="matrix" values="0 0 0 0 0 0 0 0 0 0 0 0 0 0 0 0 0 0 0.25 0"/>
<feBlend mode="normal" in2="BackgroundImageFix" result="effect1_dropShadow_23_27"/>
<feBlend mode="normal" in="SourceGraphic" in2="effect1_dropShadow_23_27" result="shape"/>
</filter>
</defs>
</svg>
