<svg width="1157" height="369" viewBox="0 0 1157 369" fill="none" xmlns="http://www.w3.org/2000/svg">
<path d="M970.974 235.482C976.655 227.786 982.502 220.475 988.143 213.423C1014.45 180.531 1036.28 153.243 1015.83 118.544C995.383 83.8447 960.937 89.7168 919.417 96.7949C910.514 98.3126 901.286 99.8857 891.802 101.126C832.449 108.889 809.496 77.2282 805.863 71.4997C823.466 99.2584 850.802 111.132 879.5 116.06C932.071 125.089 989.21 110.812 999.453 128.195C1009.48 145.214 971.544 184.599 953.481 233.377C943.429 260.521 939.532 290.574 953.481 321.3C954.042 322.537 954.633 323.775 955.253 325.015C954.836 324.25 954.199 323 953.481 321.3C948.605 309.756 939.991 277.458 970.974 235.482Z" fill="#9A9A9A"/>
<path d="M1151.87 111.347C1160 85.7948 1157.91 63.6757 1146.19 41.7242C1132.66 20.8416 1114.33 8.29629 1088.04 3.02307C1088.04 3.02307 1019.17 38.3158 1053.4 96.404C1087.63 154.492 1151.87 111.347 1151.87 111.347Z" fill="#ABEAAE"/>
<path fill-rule="evenodd" clip-rule="evenodd" d="M1115.42 176.95C1060.77 251.352 955.764 325.9 955.764 325.9C955.593 325.605 955.422 325.31 955.253 325.015C954.633 323.775 954.042 322.537 953.481 321.3C948.605 309.756 939.991 277.458 970.974 235.482C976.655 227.786 982.502 220.475 988.143 213.423C1014.45 180.531 1036.28 153.243 1015.83 118.544C995.383 83.8447 960.937 89.7168 919.417 96.7949C910.514 98.3126 901.286 99.8857 891.802 101.126C832.449 108.889 809.496 77.2282 805.863 71.4997C805.687 71.2091 805.511 70.9172 805.335 70.6242C805.335 70.6242 921.425 14.8837 1012.99 3.12701C1043.51 -0.79215 1068.07 -0.982418 1088.04 3.02307C1088.04 3.02307 1019.17 38.3158 1053.4 96.404C1087.63 154.492 1151.87 111.347 1151.87 111.347C1145.7 130.757 1133.64 152.147 1115.42 176.95ZM927.726 50.6393C923.358 52.454 921.288 57.4663 923.102 61.8346C924.917 66.2029 929.929 68.2731 934.298 66.4584C938.666 64.6438 940.736 59.6315 938.922 55.2632C937.107 50.8949 932.095 48.8247 927.726 50.6393Z" fill="#F0F0F0"/>
<path d="M923.102 61.8346C921.288 57.4663 923.358 52.454 927.726 50.6393C932.095 48.8247 937.107 50.8949 938.922 55.2632C940.736 59.6315 938.666 64.6438 934.298 66.4584C929.929 68.2731 924.917 66.2029 923.102 61.8346Z" fill="#3B82F6"/>
<path d="M1026.97 213.693C1025.15 209.324 1027.22 204.312 1031.59 202.497C1035.96 200.683 1040.97 202.753 1042.79 207.121C1044.6 211.489 1042.53 216.502 1038.16 218.316C1033.8 220.131 1028.78 218.061 1026.97 213.693Z" fill="#3B82F6"/>
<path d="M999.453 128.195C989.21 110.812 932.071 125.089 879.5 116.06L606.5 292.586L316 218.5L-0.000162168 368.586L316 241.5L624 363L953.481 233.377C971.544 184.599 1009.48 145.214 999.453 128.195Z" fill="url(#paint0_linear_136_578)"/>
<defs>
<linearGradient id="paint0_linear_136_578" x1="1145.5" y1="104" x2="27.5" y2="364" gradientUnits="userSpaceOnUse">
<stop stop-color="#84CC16"/>
<stop offset="1" stop-color="#84CC16" stop-opacity="0"/>
</linearGradient>
</defs>
</svg>
