<?xml version="1.0" standalone="no"?>
    <svg xmlns="http://www.w3.org/2000/svg" viewBox="0 0 1440 320">
        <clipPath id="wave-clip">
            <path fill="#0099ff" fill-opacity="1" d="M0,192L40,165.3C80,139,160,85,240,64C320,43,400,53,480,80C560,107,640,149,720,149.3C800,149,880,107,960,112C1040,117,1120,171,1200,181.3C1280,192,1360,160,1400,144L1440,128L1440,0L1400,0C1360,0,1280,0,1200,0C1120,0,1040,0,960,0C880,0,800,0,720,0C640,0,560,0,480,0C400,0,320,0,240,0C160,0,80,0,40,0L0,0Z">
            </path>
        </clipPath>
    </svg>